<?xml version="1.0" encoding="utf-8" standalone="no"?>
<!DOCTYPE svg PUBLIC "-//W3C//DTD SVG 1.1//EN"
  "http://www.w3.org/Graphics/SVG/1.1/DTD/svg11.dtd">
<svg xmlns:xlink="http://www.w3.org/1999/xlink" width="602.514749pt" height="344.2503pt" viewBox="0 0 602.514749 344.2503" xmlns="http://www.w3.org/2000/svg" version="1.1">
 <metadata>
  <rdf:RDF xmlns:dc="http://purl.org/dc/elements/1.1/" xmlns:cc="http://creativecommons.org/ns#" xmlns:rdf="http://www.w3.org/1999/02/22-rdf-syntax-ns#">
   <cc:Work>
    <dc:type rdf:resource="http://purl.org/dc/dcmitype/StillImage"/>
    <dc:format>image/svg+xml</dc:format>
    <dc:creator>
     <cc:Agent>
      <dc:title>GHOST-X public results generator</dc:title>
     </cc:Agent>
    </dc:creator>
   </cc:Work>
  </rdf:RDF>
 </metadata>
 <defs>
  <style type="text/css">*{stroke-linejoin: round; stroke-linecap: butt}</style>
 </defs>
 <g id="figure_1">
  <g id="patch_1">
   <path d="M 0 344.2503 
L 602.514749 344.2503 
L 602.514749 0 
L 0 0 
z
" style="fill: #ffffff"/>
  </g>
  <g id="axes_1">
   <g id="patch_2">
    <path d="M 103.552 282.9655 
L 563.277455 282.9655 
L 563.277455 25.3575 
L 103.552 25.3575 
z
" style="fill: #ffffff"/>
   </g>
   <g id="patch_3">
    <path d="M 349.678656 271.256045 
L 124.448612 271.256045 
L 124.448612 204.344877 
L 349.678656 204.344877 
z
" clip-path="url(#p0dde9ec62c)" style="fill: #7656b5"/>
   </g>
   <g id="patch_4">
    <path d="M 349.678656 187.617084 
L 349.678656 187.617084 
L 349.678656 120.705916 
L 349.678656 120.705916 
z
" clip-path="url(#p0dde9ec62c)" style="fill: #687386"/>
   </g>
   <g id="patch_5">
    <path d="M 349.678656 103.978123 
L 542.380843 103.978123 
L 542.380843 37.066955 
L 349.678656 37.066955 
z
" clip-path="url(#p0dde9ec62c)" style="fill: #1f9eb7"/>
   </g>
   <g id="matplotlib.axis_1">
    <g id="xtick_1">
     <g id="line2d_1">
      <path d="M 144.503306 282.9655 
L 144.503306 25.3575 
" clip-path="url(#p0dde9ec62c)" style="fill: none; stroke: #d9e0e8; stroke-opacity: 0.7; stroke-width: 0.8; stroke-linecap: square"/>
     </g>
     <g id="line2d_2">
      <defs>
       <path id="m6707b7e463" d="M 0 0 
L 0 3.5 
" style="stroke: #17212b; stroke-width: 0.8"/>
      </defs>
      <g>
       <use xlink:href="#m6707b7e463" x="144.503306" y="282.9655" style="fill: #17212b; stroke: #17212b; stroke-width: 0.8"/>
      </g>
     </g>
     <g id="text_1">
      <!-- −0.4 -->
      <g style="fill: #17212b" transform="translate(132.361899 297.563937) scale(0.1 -0.1)">
       <defs>
        <path id="DejaVuSans-2212" d="M 678 2272 
L 4684 2272 
L 4684 1741 
L 678 1741 
L 678 2272 
z
" transform="scale(0.015625)"/>
        <path id="DejaVuSans-30" d="M 2034 4250 
Q 1547 4250 1301 3770 
Q 1056 3291 1056 2328 
Q 1056 1369 1301 889 
Q 1547 409 2034 409 
Q 2525 409 2770 889 
Q 3016 1369 3016 2328 
Q 3016 3291 2770 3770 
Q 2525 4250 2034 4250 
z
M 2034 4750 
Q 2819 4750 3233 4129 
Q 3647 3509 3647 2328 
Q 3647 1150 3233 529 
Q 2819 -91 2034 -91 
Q 1250 -91 836 529 
Q 422 1150 422 2328 
Q 422 3509 836 4129 
Q 1250 4750 2034 4750 
z
" transform="scale(0.015625)"/>
        <path id="DejaVuSans-2e" d="M 684 794 
L 1344 794 
L 1344 0 
L 684 0 
L 684 794 
z
" transform="scale(0.015625)"/>
        <path id="DejaVuSans-34" d="M 2419 4116 
L 825 1625 
L 2419 1625 
L 2419 4116 
z
M 2253 4666 
L 3047 4666 
L 3047 1625 
L 3713 1625 
L 3713 1100 
L 3047 1100 
L 3047 0 
L 2419 0 
L 2419 1100 
L 313 1100 
L 313 1709 
L 2253 4666 
z
" transform="scale(0.015625)"/>
       </defs>
       <use xlink:href="#DejaVuSans-2212"/>
       <use xlink:href="#DejaVuSans-30" x="83.789062"/>
       <use xlink:href="#DejaVuSans-2e" x="147.412109"/>
       <use xlink:href="#DejaVuSans-34" x="179.199219"/>
      </g>
     </g>
    </g>
    <g id="xtick_2">
     <g id="line2d_3">
      <path d="M 195.797143 282.9655 
L 195.797143 25.3575 
" clip-path="url(#p0dde9ec62c)" style="fill: none; stroke: #d9e0e8; stroke-opacity: 0.7; stroke-width: 0.8; stroke-linecap: square"/>
     </g>
     <g id="line2d_4">
      <g>
       <use xlink:href="#m6707b7e463" x="195.797143" y="282.9655" style="fill: #17212b; stroke: #17212b; stroke-width: 0.8"/>
      </g>
     </g>
     <g id="text_2">
      <!-- −0.3 -->
      <g style="fill: #17212b" transform="translate(183.655737 297.563937) scale(0.1 -0.1)">
       <defs>
        <path id="DejaVuSans-33" d="M 2597 2516 
Q 3050 2419 3304 2112 
Q 3559 1806 3559 1356 
Q 3559 666 3084 287 
Q 2609 -91 1734 -91 
Q 1441 -91 1130 -33 
Q 819 25 488 141 
L 488 750 
Q 750 597 1062 519 
Q 1375 441 1716 441 
Q 2309 441 2620 675 
Q 2931 909 2931 1356 
Q 2931 1769 2642 2001 
Q 2353 2234 1838 2234 
L 1294 2234 
L 1294 2753 
L 1863 2753 
Q 2328 2753 2575 2939 
Q 2822 3125 2822 3475 
Q 2822 3834 2567 4026 
Q 2313 4219 1838 4219 
Q 1578 4219 1281 4162 
Q 984 4106 628 3988 
L 628 4550 
Q 988 4650 1302 4700 
Q 1616 4750 1894 4750 
Q 2613 4750 3031 4423 
Q 3450 4097 3450 3541 
Q 3450 3153 3228 2886 
Q 3006 2619 2597 2516 
z
" transform="scale(0.015625)"/>
       </defs>
       <use xlink:href="#DejaVuSans-2212"/>
       <use xlink:href="#DejaVuSans-30" x="83.789062"/>
       <use xlink:href="#DejaVuSans-2e" x="147.412109"/>
       <use xlink:href="#DejaVuSans-33" x="179.199219"/>
      </g>
     </g>
    </g>
    <g id="xtick_3">
     <g id="line2d_5">
      <path d="M 247.090981 282.9655 
L 247.090981 25.3575 
" clip-path="url(#p0dde9ec62c)" style="fill: none; stroke: #d9e0e8; stroke-opacity: 0.7; stroke-width: 0.8; stroke-linecap: square"/>
     </g>
     <g id="line2d_6">
      <g>
       <use xlink:href="#m6707b7e463" x="247.090981" y="282.9655" style="fill: #17212b; stroke: #17212b; stroke-width: 0.8"/>
      </g>
     </g>
     <g id="text_3">
      <!-- −0.2 -->
      <g style="fill: #17212b" transform="translate(234.949574 297.563937) scale(0.1 -0.1)">
       <defs>
        <path id="DejaVuSans-32" d="M 1228 531 
L 3431 531 
L 3431 0 
L 469 0 
L 469 531 
Q 828 903 1448 1529 
Q 2069 2156 2228 2338 
Q 2531 2678 2651 2914 
Q 2772 3150 2772 3378 
Q 2772 3750 2511 3984 
Q 2250 4219 1831 4219 
Q 1534 4219 1204 4116 
Q 875 4013 500 3803 
L 500 4441 
Q 881 4594 1212 4672 
Q 1544 4750 1819 4750 
Q 2544 4750 2975 4387 
Q 3406 4025 3406 3419 
Q 3406 3131 3298 2873 
Q 3191 2616 2906 2266 
Q 2828 2175 2409 1742 
Q 1991 1309 1228 531 
z
" transform="scale(0.015625)"/>
       </defs>
       <use xlink:href="#DejaVuSans-2212"/>
       <use xlink:href="#DejaVuSans-30" x="83.789062"/>
       <use xlink:href="#DejaVuSans-2e" x="147.412109"/>
       <use xlink:href="#DejaVuSans-32" x="179.199219"/>
      </g>
     </g>
    </g>
    <g id="xtick_4">
     <g id="line2d_7">
      <path d="M 298.384818 282.9655 
L 298.384818 25.3575 
" clip-path="url(#p0dde9ec62c)" style="fill: none; stroke: #d9e0e8; stroke-opacity: 0.7; stroke-width: 0.8; stroke-linecap: square"/>
     </g>
     <g id="line2d_8">
      <g>
       <use xlink:href="#m6707b7e463" x="298.384818" y="282.9655" style="fill: #17212b; stroke: #17212b; stroke-width: 0.8"/>
      </g>
     </g>
     <g id="text_4">
      <!-- −0.1 -->
      <g style="fill: #17212b" transform="translate(286.243412 297.563937) scale(0.1 -0.1)">
       <defs>
        <path id="DejaVuSans-31" d="M 794 531 
L 1825 531 
L 1825 4091 
L 703 3866 
L 703 4441 
L 1819 4666 
L 2450 4666 
L 2450 531 
L 3481 531 
L 3481 0 
L 794 0 
L 794 531 
z
" transform="scale(0.015625)"/>
       </defs>
       <use xlink:href="#DejaVuSans-2212"/>
       <use xlink:href="#DejaVuSans-30" x="83.789062"/>
       <use xlink:href="#DejaVuSans-2e" x="147.412109"/>
       <use xlink:href="#DejaVuSans-31" x="179.199219"/>
      </g>
     </g>
    </g>
    <g id="xtick_5">
     <g id="line2d_9">
      <path d="M 349.678656 282.9655 
L 349.678656 25.3575 
" clip-path="url(#p0dde9ec62c)" style="fill: none; stroke: #d9e0e8; stroke-opacity: 0.7; stroke-width: 0.8; stroke-linecap: square"/>
     </g>
     <g id="line2d_10">
      <g>
       <use xlink:href="#m6707b7e463" x="349.678656" y="282.9655" style="fill: #17212b; stroke: #17212b; stroke-width: 0.8"/>
      </g>
     </g>
     <g id="text_5">
      <!-- 0.0 -->
      <g style="fill: #17212b" transform="translate(341.727093 297.563937) scale(0.1 -0.1)">
       <use xlink:href="#DejaVuSans-30"/>
       <use xlink:href="#DejaVuSans-2e" x="63.623047"/>
       <use xlink:href="#DejaVuSans-30" x="95.410156"/>
      </g>
     </g>
    </g>
    <g id="xtick_6">
     <g id="line2d_11">
      <path d="M 400.972493 282.9655 
L 400.972493 25.3575 
" clip-path="url(#p0dde9ec62c)" style="fill: none; stroke: #d9e0e8; stroke-opacity: 0.7; stroke-width: 0.8; stroke-linecap: square"/>
     </g>
     <g id="line2d_12">
      <g>
       <use xlink:href="#m6707b7e463" x="400.972493" y="282.9655" style="fill: #17212b; stroke: #17212b; stroke-width: 0.8"/>
      </g>
     </g>
     <g id="text_6">
      <!-- 0.1 -->
      <g style="fill: #17212b" transform="translate(393.020931 297.563937) scale(0.1 -0.1)">
       <use xlink:href="#DejaVuSans-30"/>
       <use xlink:href="#DejaVuSans-2e" x="63.623047"/>
       <use xlink:href="#DejaVuSans-31" x="95.410156"/>
      </g>
     </g>
    </g>
    <g id="xtick_7">
     <g id="line2d_13">
      <path d="M 452.266331 282.9655 
L 452.266331 25.3575 
" clip-path="url(#p0dde9ec62c)" style="fill: none; stroke: #d9e0e8; stroke-opacity: 0.7; stroke-width: 0.8; stroke-linecap: square"/>
     </g>
     <g id="line2d_14">
      <g>
       <use xlink:href="#m6707b7e463" x="452.266331" y="282.9655" style="fill: #17212b; stroke: #17212b; stroke-width: 0.8"/>
      </g>
     </g>
     <g id="text_7">
      <!-- 0.2 -->
      <g style="fill: #17212b" transform="translate(444.314768 297.563937) scale(0.1 -0.1)">
       <use xlink:href="#DejaVuSans-30"/>
       <use xlink:href="#DejaVuSans-2e" x="63.623047"/>
       <use xlink:href="#DejaVuSans-32" x="95.410156"/>
      </g>
     </g>
    </g>
    <g id="xtick_8">
     <g id="line2d_15">
      <path d="M 503.560168 282.9655 
L 503.560168 25.3575 
" clip-path="url(#p0dde9ec62c)" style="fill: none; stroke: #d9e0e8; stroke-opacity: 0.7; stroke-width: 0.8; stroke-linecap: square"/>
     </g>
     <g id="line2d_16">
      <g>
       <use xlink:href="#m6707b7e463" x="503.560168" y="282.9655" style="fill: #17212b; stroke: #17212b; stroke-width: 0.8"/>
      </g>
     </g>
     <g id="text_8">
      <!-- 0.3 -->
      <g style="fill: #17212b" transform="translate(495.608606 297.563937) scale(0.1 -0.1)">
       <use xlink:href="#DejaVuSans-30"/>
       <use xlink:href="#DejaVuSans-2e" x="63.623047"/>
       <use xlink:href="#DejaVuSans-33" x="95.410156"/>
      </g>
     </g>
    </g>
    <g id="xtick_9">
     <g id="line2d_17">
      <path d="M 554.854006 282.9655 
L 554.854006 25.3575 
" clip-path="url(#p0dde9ec62c)" style="fill: none; stroke: #d9e0e8; stroke-opacity: 0.7; stroke-width: 0.8; stroke-linecap: square"/>
     </g>
     <g id="line2d_18">
      <g>
       <use xlink:href="#m6707b7e463" x="554.854006" y="282.9655" style="fill: #17212b; stroke: #17212b; stroke-width: 0.8"/>
      </g>
     </g>
     <g id="text_9">
      <!-- 0.4 -->
      <g style="fill: #17212b" transform="translate(546.902444 297.563937) scale(0.1 -0.1)">
       <use xlink:href="#DejaVuSans-30"/>
       <use xlink:href="#DejaVuSans-2e" x="63.623047"/>
       <use xlink:href="#DejaVuSans-34" x="95.410156"/>
      </g>
     </g>
    </g>
    <g id="text_10">
     <!-- Lateral change from center baseline (m) -->
     <g style="fill: #17212b" transform="translate(222.120509 312.001906) scale(0.11 -0.11)">
      <defs>
       <path id="DejaVuSans-4c" d="M 628 4666 
L 1259 4666 
L 1259 531 
L 3531 531 
L 3531 0 
L 628 0 
L 628 4666 
z
" transform="scale(0.015625)"/>
       <path id="DejaVuSans-61" d="M 2194 1759 
Q 1497 1759 1228 1600 
Q 959 1441 959 1056 
Q 959 750 1161 570 
Q 1363 391 1709 391 
Q 2188 391 2477 730 
Q 2766 1069 2766 1631 
L 2766 1759 
L 2194 1759 
z
M 3341 1997 
L 3341 0 
L 2766 0 
L 2766 531 
Q 2569 213 2275 61 
Q 1981 -91 1556 -91 
Q 1019 -91 701 211 
Q 384 513 384 1019 
Q 384 1609 779 1909 
Q 1175 2209 1959 2209 
L 2766 2209 
L 2766 2266 
Q 2766 2663 2505 2880 
Q 2244 3097 1772 3097 
Q 1472 3097 1187 3025 
Q 903 2953 641 2809 
L 641 3341 
Q 956 3463 1253 3523 
Q 1550 3584 1831 3584 
Q 2591 3584 2966 3190 
Q 3341 2797 3341 1997 
z
" transform="scale(0.015625)"/>
       <path id="DejaVuSans-74" d="M 1172 4494 
L 1172 3500 
L 2356 3500 
L 2356 3053 
L 1172 3053 
L 1172 1153 
Q 1172 725 1289 603 
Q 1406 481 1766 481 
L 2356 481 
L 2356 0 
L 1766 0 
Q 1100 0 847 248 
Q 594 497 594 1153 
L 594 3053 
L 172 3053 
L 172 3500 
L 594 3500 
L 594 4494 
L 1172 4494 
z
" transform="scale(0.015625)"/>
       <path id="DejaVuSans-65" d="M 3597 1894 
L 3597 1613 
L 953 1613 
Q 991 1019 1311 708 
Q 1631 397 2203 397 
Q 2534 397 2845 478 
Q 3156 559 3463 722 
L 3463 178 
Q 3153 47 2828 -22 
Q 2503 -91 2169 -91 
Q 1331 -91 842 396 
Q 353 884 353 1716 
Q 353 2575 817 3079 
Q 1281 3584 2069 3584 
Q 2775 3584 3186 3129 
Q 3597 2675 3597 1894 
z
M 3022 2063 
Q 3016 2534 2758 2815 
Q 2500 3097 2075 3097 
Q 1594 3097 1305 2825 
Q 1016 2553 972 2059 
L 3022 2063 
z
" transform="scale(0.015625)"/>
       <path id="DejaVuSans-72" d="M 2631 2963 
Q 2534 3019 2420 3045 
Q 2306 3072 2169 3072 
Q 1681 3072 1420 2755 
Q 1159 2438 1159 1844 
L 1159 0 
L 581 0 
L 581 3500 
L 1159 3500 
L 1159 2956 
Q 1341 3275 1631 3429 
Q 1922 3584 2338 3584 
Q 2397 3584 2469 3576 
Q 2541 3569 2628 3553 
L 2631 2963 
z
" transform="scale(0.015625)"/>
       <path id="DejaVuSans-6c" d="M 603 4863 
L 1178 4863 
L 1178 0 
L 603 0 
L 603 4863 
z
" transform="scale(0.015625)"/>
       <path id="DejaVuSans-20" transform="scale(0.015625)"/>
       <path id="DejaVuSans-63" d="M 3122 3366 
L 3122 2828 
Q 2878 2963 2633 3030 
Q 2388 3097 2138 3097 
Q 1578 3097 1268 2742 
Q 959 2388 959 1747 
Q 959 1106 1268 751 
Q 1578 397 2138 397 
Q 2388 397 2633 464 
Q 2878 531 3122 666 
L 3122 134 
Q 2881 22 2623 -34 
Q 2366 -91 2075 -91 
Q 1284 -91 818 406 
Q 353 903 353 1747 
Q 353 2603 823 3093 
Q 1294 3584 2113 3584 
Q 2378 3584 2631 3529 
Q 2884 3475 3122 3366 
z
" transform="scale(0.015625)"/>
       <path id="DejaVuSans-68" d="M 3513 2113 
L 3513 0 
L 2938 0 
L 2938 2094 
Q 2938 2591 2744 2837 
Q 2550 3084 2163 3084 
Q 1697 3084 1428 2787 
Q 1159 2491 1159 1978 
L 1159 0 
L 581 0 
L 581 4863 
L 1159 4863 
L 1159 2956 
Q 1366 3272 1645 3428 
Q 1925 3584 2291 3584 
Q 2894 3584 3203 3211 
Q 3513 2838 3513 2113 
z
" transform="scale(0.015625)"/>
       <path id="DejaVuSans-6e" d="M 3513 2113 
L 3513 0 
L 2938 0 
L 2938 2094 
Q 2938 2591 2744 2837 
Q 2550 3084 2163 3084 
Q 1697 3084 1428 2787 
Q 1159 2491 1159 1978 
L 1159 0 
L 581 0 
L 581 3500 
L 1159 3500 
L 1159 2956 
Q 1366 3272 1645 3428 
Q 1925 3584 2291 3584 
Q 2894 3584 3203 3211 
Q 3513 2838 3513 2113 
z
" transform="scale(0.015625)"/>
       <path id="DejaVuSans-67" d="M 2906 1791 
Q 2906 2416 2648 2759 
Q 2391 3103 1925 3103 
Q 1463 3103 1205 2759 
Q 947 2416 947 1791 
Q 947 1169 1205 825 
Q 1463 481 1925 481 
Q 2391 481 2648 825 
Q 2906 1169 2906 1791 
z
M 3481 434 
Q 3481 -459 3084 -895 
Q 2688 -1331 1869 -1331 
Q 1566 -1331 1297 -1286 
Q 1028 -1241 775 -1147 
L 775 -588 
Q 1028 -725 1275 -790 
Q 1522 -856 1778 -856 
Q 2344 -856 2625 -561 
Q 2906 -266 2906 331 
L 2906 616 
Q 2728 306 2450 153 
Q 2172 0 1784 0 
Q 1141 0 747 490 
Q 353 981 353 1791 
Q 353 2603 747 3093 
Q 1141 3584 1784 3584 
Q 2172 3584 2450 3431 
Q 2728 3278 2906 2969 
L 2906 3500 
L 3481 3500 
L 3481 434 
z
" transform="scale(0.015625)"/>
       <path id="DejaVuSans-66" d="M 2375 4863 
L 2375 4384 
L 1825 4384 
Q 1516 4384 1395 4259 
Q 1275 4134 1275 3809 
L 1275 3500 
L 2222 3500 
L 2222 3053 
L 1275 3053 
L 1275 0 
L 697 0 
L 697 3053 
L 147 3053 
L 147 3500 
L 697 3500 
L 697 3744 
Q 697 4328 969 4595 
Q 1241 4863 1831 4863 
L 2375 4863 
z
" transform="scale(0.015625)"/>
       <path id="DejaVuSans-6f" d="M 1959 3097 
Q 1497 3097 1228 2736 
Q 959 2375 959 1747 
Q 959 1119 1226 758 
Q 1494 397 1959 397 
Q 2419 397 2687 759 
Q 2956 1122 2956 1747 
Q 2956 2369 2687 2733 
Q 2419 3097 1959 3097 
z
M 1959 3584 
Q 2709 3584 3137 3096 
Q 3566 2609 3566 1747 
Q 3566 888 3137 398 
Q 2709 -91 1959 -91 
Q 1206 -91 779 398 
Q 353 888 353 1747 
Q 353 2609 779 3096 
Q 1206 3584 1959 3584 
z
" transform="scale(0.015625)"/>
       <path id="DejaVuSans-6d" d="M 3328 2828 
Q 3544 3216 3844 3400 
Q 4144 3584 4550 3584 
Q 5097 3584 5394 3201 
Q 5691 2819 5691 2113 
L 5691 0 
L 5113 0 
L 5113 2094 
Q 5113 2597 4934 2840 
Q 4756 3084 4391 3084 
Q 3944 3084 3684 2787 
Q 3425 2491 3425 1978 
L 3425 0 
L 2847 0 
L 2847 2094 
Q 2847 2600 2669 2842 
Q 2491 3084 2119 3084 
Q 1678 3084 1418 2786 
Q 1159 2488 1159 1978 
L 1159 0 
L 581 0 
L 581 3500 
L 1159 3500 
L 1159 2956 
Q 1356 3278 1631 3431 
Q 1906 3584 2284 3584 
Q 2666 3584 2933 3390 
Q 3200 3197 3328 2828 
z
" transform="scale(0.015625)"/>
       <path id="DejaVuSans-62" d="M 3116 1747 
Q 3116 2381 2855 2742 
Q 2594 3103 2138 3103 
Q 1681 3103 1420 2742 
Q 1159 2381 1159 1747 
Q 1159 1113 1420 752 
Q 1681 391 2138 391 
Q 2594 391 2855 752 
Q 3116 1113 3116 1747 
z
M 1159 2969 
Q 1341 3281 1617 3432 
Q 1894 3584 2278 3584 
Q 2916 3584 3314 3078 
Q 3713 2572 3713 1747 
Q 3713 922 3314 415 
Q 2916 -91 2278 -91 
Q 1894 -91 1617 61 
Q 1341 213 1159 525 
L 1159 0 
L 581 0 
L 581 4863 
L 1159 4863 
L 1159 2969 
z
" transform="scale(0.015625)"/>
       <path id="DejaVuSans-73" d="M 2834 3397 
L 2834 2853 
Q 2591 2978 2328 3040 
Q 2066 3103 1784 3103 
Q 1356 3103 1142 2972 
Q 928 2841 928 2578 
Q 928 2378 1081 2264 
Q 1234 2150 1697 2047 
L 1894 2003 
Q 2506 1872 2764 1633 
Q 3022 1394 3022 966 
Q 3022 478 2636 193 
Q 2250 -91 1575 -91 
Q 1294 -91 989 -36 
Q 684 19 347 128 
L 347 722 
Q 666 556 975 473 
Q 1284 391 1588 391 
Q 1994 391 2212 530 
Q 2431 669 2431 922 
Q 2431 1156 2273 1281 
Q 2116 1406 1581 1522 
L 1381 1569 
Q 847 1681 609 1914 
Q 372 2147 372 2553 
Q 372 3047 722 3315 
Q 1072 3584 1716 3584 
Q 2034 3584 2315 3537 
Q 2597 3491 2834 3397 
z
" transform="scale(0.015625)"/>
       <path id="DejaVuSans-69" d="M 603 3500 
L 1178 3500 
L 1178 0 
L 603 0 
L 603 3500 
z
M 603 4863 
L 1178 4863 
L 1178 4134 
L 603 4134 
L 603 4863 
z
" transform="scale(0.015625)"/>
       <path id="DejaVuSans-28" d="M 1984 4856 
Q 1566 4138 1362 3434 
Q 1159 2731 1159 2009 
Q 1159 1288 1364 580 
Q 1569 -128 1984 -844 
L 1484 -844 
Q 1016 -109 783 600 
Q 550 1309 550 2009 
Q 550 2706 781 3412 
Q 1013 4119 1484 4856 
L 1984 4856 
z
" transform="scale(0.015625)"/>
       <path id="DejaVuSans-29" d="M 513 4856 
L 1013 4856 
Q 1481 4119 1714 3412 
Q 1947 2706 1947 2009 
Q 1947 1309 1714 600 
Q 1481 -109 1013 -844 
L 513 -844 
Q 928 -128 1133 580 
Q 1338 1288 1338 2009 
Q 1338 2731 1133 3434 
Q 928 4138 513 4856 
z
" transform="scale(0.015625)"/>
      </defs>
      <use xlink:href="#DejaVuSans-4c"/>
      <use xlink:href="#DejaVuSans-61" x="55.712891"/>
      <use xlink:href="#DejaVuSans-74" x="116.992188"/>
      <use xlink:href="#DejaVuSans-65" x="156.201172"/>
      <use xlink:href="#DejaVuSans-72" x="217.724609"/>
      <use xlink:href="#DejaVuSans-61" x="258.837891"/>
      <use xlink:href="#DejaVuSans-6c" x="320.117188"/>
      <use xlink:href="#DejaVuSans-20" x="347.900391"/>
      <use xlink:href="#DejaVuSans-63" x="379.6875"/>
      <use xlink:href="#DejaVuSans-68" x="434.667969"/>
      <use xlink:href="#DejaVuSans-61" x="498.046875"/>
      <use xlink:href="#DejaVuSans-6e" x="559.326172"/>
      <use xlink:href="#DejaVuSans-67" x="622.705078"/>
      <use xlink:href="#DejaVuSans-65" x="686.181641"/>
      <use xlink:href="#DejaVuSans-20" x="747.705078"/>
      <use xlink:href="#DejaVuSans-66" x="779.492188"/>
      <use xlink:href="#DejaVuSans-72" x="814.697266"/>
      <use xlink:href="#DejaVuSans-6f" x="853.560547"/>
      <use xlink:href="#DejaVuSans-6d" x="914.742188"/>
      <use xlink:href="#DejaVuSans-20" x="1012.154297"/>
      <use xlink:href="#DejaVuSans-63" x="1043.941406"/>
      <use xlink:href="#DejaVuSans-65" x="1098.921875"/>
      <use xlink:href="#DejaVuSans-6e" x="1160.445312"/>
      <use xlink:href="#DejaVuSans-74" x="1223.824219"/>
      <use xlink:href="#DejaVuSans-65" x="1263.033203"/>
      <use xlink:href="#DejaVuSans-72" x="1324.556641"/>
      <use xlink:href="#DejaVuSans-20" x="1365.669922"/>
      <use xlink:href="#DejaVuSans-62" x="1397.457031"/>
      <use xlink:href="#DejaVuSans-61" x="1460.933594"/>
      <use xlink:href="#DejaVuSans-73" x="1522.212891"/>
      <use xlink:href="#DejaVuSans-65" x="1574.3125"/>
      <use xlink:href="#DejaVuSans-6c" x="1635.835938"/>
      <use xlink:href="#DejaVuSans-69" x="1663.619141"/>
      <use xlink:href="#DejaVuSans-6e" x="1691.402344"/>
      <use xlink:href="#DejaVuSans-65" x="1754.78125"/>
      <use xlink:href="#DejaVuSans-20" x="1816.304688"/>
      <use xlink:href="#DejaVuSans-28" x="1848.091797"/>
      <use xlink:href="#DejaVuSans-6d" x="1887.105469"/>
      <use xlink:href="#DejaVuSans-29" x="1984.517578"/>
     </g>
    </g>
   </g>
   <g id="matplotlib.axis_2">
    <g id="ytick_1">
     <g id="line2d_19">
      <defs>
       <path id="m6cbfe3265b" d="M 0 0 
L -3.5 0 
" style="stroke: #17212b; stroke-width: 0.8"/>
      </defs>
      <g>
       <use xlink:href="#m6cbfe3265b" x="103.552" y="237.800461" style="fill: #17212b; stroke: #17212b; stroke-width: 0.8"/>
      </g>
     </g>
     <g id="text_11">
      <!-- Right hold -->
      <g style="fill: #17212b" transform="translate(45.45825 241.59968) scale(0.1 -0.1)">
       <defs>
        <path id="DejaVuSans-52" d="M 2841 2188 
Q 3044 2119 3236 1894 
Q 3428 1669 3622 1275 
L 4263 0 
L 3584 0 
L 2988 1197 
Q 2756 1666 2539 1819 
Q 2322 1972 1947 1972 
L 1259 1972 
L 1259 0 
L 628 0 
L 628 4666 
L 2053 4666 
Q 2853 4666 3247 4331 
Q 3641 3997 3641 3322 
Q 3641 2881 3436 2590 
Q 3231 2300 2841 2188 
z
M 1259 4147 
L 1259 2491 
L 2053 2491 
Q 2509 2491 2742 2702 
Q 2975 2913 2975 3322 
Q 2975 3731 2742 3939 
Q 2509 4147 2053 4147 
L 1259 4147 
z
" transform="scale(0.015625)"/>
        <path id="DejaVuSans-64" d="M 2906 2969 
L 2906 4863 
L 3481 4863 
L 3481 0 
L 2906 0 
L 2906 525 
Q 2725 213 2448 61 
Q 2172 -91 1784 -91 
Q 1150 -91 751 415 
Q 353 922 353 1747 
Q 353 2572 751 3078 
Q 1150 3584 1784 3584 
Q 2172 3584 2448 3432 
Q 2725 3281 2906 2969 
z
M 947 1747 
Q 947 1113 1208 752 
Q 1469 391 1925 391 
Q 2381 391 2643 752 
Q 2906 1113 2906 1747 
Q 2906 2381 2643 2742 
Q 2381 3103 1925 3103 
Q 1469 3103 1208 2742 
Q 947 2381 947 1747 
z
" transform="scale(0.015625)"/>
       </defs>
       <use xlink:href="#DejaVuSans-52"/>
       <use xlink:href="#DejaVuSans-69" x="69.482422"/>
       <use xlink:href="#DejaVuSans-67" x="97.265625"/>
       <use xlink:href="#DejaVuSans-68" x="160.742188"/>
       <use xlink:href="#DejaVuSans-74" x="224.121094"/>
       <use xlink:href="#DejaVuSans-20" x="263.330078"/>
       <use xlink:href="#DejaVuSans-68" x="295.117188"/>
       <use xlink:href="#DejaVuSans-6f" x="358.496094"/>
       <use xlink:href="#DejaVuSans-6c" x="419.677734"/>
       <use xlink:href="#DejaVuSans-64" x="447.460938"/>
      </g>
     </g>
    </g>
    <g id="ytick_2">
     <g id="line2d_20">
      <g>
       <use xlink:href="#m6cbfe3265b" x="103.552" y="154.1615" style="fill: #17212b; stroke: #17212b; stroke-width: 0.8"/>
      </g>
     </g>
     <g id="text_12">
      <!-- Center reference -->
      <g style="fill: #17212b" transform="translate(11.975437 157.960719) scale(0.1 -0.1)">
       <defs>
        <path id="DejaVuSans-43" d="M 4122 4306 
L 4122 3641 
Q 3803 3938 3442 4084 
Q 3081 4231 2675 4231 
Q 1875 4231 1450 3742 
Q 1025 3253 1025 2328 
Q 1025 1406 1450 917 
Q 1875 428 2675 428 
Q 3081 428 3442 575 
Q 3803 722 4122 1019 
L 4122 359 
Q 3791 134 3420 21 
Q 3050 -91 2638 -91 
Q 1578 -91 968 557 
Q 359 1206 359 2328 
Q 359 3453 968 4101 
Q 1578 4750 2638 4750 
Q 3056 4750 3426 4639 
Q 3797 4528 4122 4306 
z
" transform="scale(0.015625)"/>
       </defs>
       <use xlink:href="#DejaVuSans-43"/>
       <use xlink:href="#DejaVuSans-65" x="69.824219"/>
       <use xlink:href="#DejaVuSans-6e" x="131.347656"/>
       <use xlink:href="#DejaVuSans-74" x="194.726562"/>
       <use xlink:href="#DejaVuSans-65" x="233.935547"/>
       <use xlink:href="#DejaVuSans-72" x="295.458984"/>
       <use xlink:href="#DejaVuSans-20" x="336.572266"/>
       <use xlink:href="#DejaVuSans-72" x="368.359375"/>
       <use xlink:href="#DejaVuSans-65" x="407.222656"/>
       <use xlink:href="#DejaVuSans-66" x="468.746094"/>
       <use xlink:href="#DejaVuSans-65" x="503.951172"/>
       <use xlink:href="#DejaVuSans-72" x="565.474609"/>
       <use xlink:href="#DejaVuSans-65" x="604.337891"/>
       <use xlink:href="#DejaVuSans-6e" x="665.861328"/>
       <use xlink:href="#DejaVuSans-63" x="729.240234"/>
       <use xlink:href="#DejaVuSans-65" x="784.220703"/>
      </g>
     </g>
    </g>
    <g id="ytick_3">
     <g id="line2d_21">
      <g>
       <use xlink:href="#m6cbfe3265b" x="103.552" y="70.522539" style="fill: #17212b; stroke: #17212b; stroke-width: 0.8"/>
      </g>
     </g>
     <g id="text_13">
      <!-- Left hold -->
      <g style="fill: #17212b" transform="translate(52.975438 74.321758) scale(0.1 -0.1)">
       <use xlink:href="#DejaVuSans-4c"/>
       <use xlink:href="#DejaVuSans-65" x="53.962891"/>
       <use xlink:href="#DejaVuSans-66" x="115.486328"/>
       <use xlink:href="#DejaVuSans-74" x="148.941406"/>
       <use xlink:href="#DejaVuSans-20" x="188.150391"/>
       <use xlink:href="#DejaVuSans-68" x="219.9375"/>
       <use xlink:href="#DejaVuSans-6f" x="283.316406"/>
       <use xlink:href="#DejaVuSans-6c" x="344.498047"/>
       <use xlink:href="#DejaVuSans-64" x="372.28125"/>
      </g>
     </g>
    </g>
   </g>
   <g id="line2d_22">
    <path d="M 349.678656 282.9655 
L 349.678656 25.3575 
" clip-path="url(#p0dde9ec62c)" style="fill: none; stroke: #17212b; stroke-linecap: square"/>
   </g>
   <g id="patch_6">
    <path d="M 103.552 282.9655 
L 103.552 25.3575 
" style="fill: none; stroke: #687386; stroke-width: 0.8; stroke-linejoin: miter; stroke-linecap: square"/>
   </g>
   <g id="patch_7">
    <path d="M 563.277455 282.9655 
L 563.277455 25.3575 
" style="fill: none; stroke: #687386; stroke-width: 0.8; stroke-linejoin: miter; stroke-linecap: square"/>
   </g>
   <g id="patch_8">
    <path d="M 103.552 282.9655 
L 563.277455 282.9655 
" style="fill: none; stroke: #687386; stroke-width: 0.8; stroke-linejoin: miter; stroke-linecap: square"/>
   </g>
   <g id="patch_9">
    <path d="M 103.552 25.3575 
L 563.277455 25.3575 
" style="fill: none; stroke: #687386; stroke-width: 0.8; stroke-linejoin: miter; stroke-linecap: square"/>
   </g>
   <g id="text_14">
    <!-- The sign follows the camera coordinate convention; only directional response is claimed. -->
    <g style="fill: #687386" transform="translate(110.808477 20.701732) scale(0.1 -0.1)">
     <defs>
      <path id="DejaVuSans-54" d="M -19 4666 
L 3928 4666 
L 3928 4134 
L 2272 4134 
L 2272 0 
L 1638 0 
L 1638 4134 
L -19 4134 
L -19 4666 
z
" transform="scale(0.015625)"/>
      <path id="DejaVuSans-77" d="M 269 3500 
L 844 3500 
L 1563 769 
L 2278 3500 
L 2956 3500 
L 3675 769 
L 4391 3500 
L 4966 3500 
L 4050 0 
L 3372 0 
L 2619 2869 
L 1863 0 
L 1184 0 
L 269 3500 
z
" transform="scale(0.015625)"/>
      <path id="DejaVuSans-76" d="M 191 3500 
L 800 3500 
L 1894 563 
L 2988 3500 
L 3597 3500 
L 2284 0 
L 1503 0 
L 191 3500 
z
" transform="scale(0.015625)"/>
      <path id="DejaVuSans-3b" d="M 750 3309 
L 1409 3309 
L 1409 2516 
L 750 2516 
L 750 3309 
z
M 750 794 
L 1409 794 
L 1409 256 
L 897 -744 
L 494 -744 
L 750 256 
L 750 794 
z
" transform="scale(0.015625)"/>
      <path id="DejaVuSans-79" d="M 2059 -325 
Q 1816 -950 1584 -1140 
Q 1353 -1331 966 -1331 
L 506 -1331 
L 506 -850 
L 844 -850 
Q 1081 -850 1212 -737 
Q 1344 -625 1503 -206 
L 1606 56 
L 191 3500 
L 800 3500 
L 1894 763 
L 2988 3500 
L 3597 3500 
L 2059 -325 
z
" transform="scale(0.015625)"/>
      <path id="DejaVuSans-70" d="M 1159 525 
L 1159 -1331 
L 581 -1331 
L 581 3500 
L 1159 3500 
L 1159 2969 
Q 1341 3281 1617 3432 
Q 1894 3584 2278 3584 
Q 2916 3584 3314 3078 
Q 3713 2572 3713 1747 
Q 3713 922 3314 415 
Q 2916 -91 2278 -91 
Q 1894 -91 1617 61 
Q 1341 213 1159 525 
z
M 3116 1747 
Q 3116 2381 2855 2742 
Q 2594 3103 2138 3103 
Q 1681 3103 1420 2742 
Q 1159 2381 1159 1747 
Q 1159 1113 1420 752 
Q 1681 391 2138 391 
Q 2594 391 2855 752 
Q 3116 1113 3116 1747 
z
" transform="scale(0.015625)"/>
     </defs>
     <use xlink:href="#DejaVuSans-54"/>
     <use xlink:href="#DejaVuSans-68" x="61.083984"/>
     <use xlink:href="#DejaVuSans-65" x="124.462891"/>
     <use xlink:href="#DejaVuSans-20" x="185.986328"/>
     <use xlink:href="#DejaVuSans-73" x="217.773438"/>
     <use xlink:href="#DejaVuSans-69" x="269.873047"/>
     <use xlink:href="#DejaVuSans-67" x="297.65625"/>
     <use xlink:href="#DejaVuSans-6e" x="361.132812"/>
     <use xlink:href="#DejaVuSans-20" x="424.511719"/>
     <use xlink:href="#DejaVuSans-66" x="456.298828"/>
     <use xlink:href="#DejaVuSans-6f" x="491.503906"/>
     <use xlink:href="#DejaVuSans-6c" x="552.685547"/>
     <use xlink:href="#DejaVuSans-6c" x="580.46875"/>
     <use xlink:href="#DejaVuSans-6f" x="608.251953"/>
     <use xlink:href="#DejaVuSans-77" x="669.433594"/>
     <use xlink:href="#DejaVuSans-73" x="751.220703"/>
     <use xlink:href="#DejaVuSans-20" x="803.320312"/>
     <use xlink:href="#DejaVuSans-74" x="835.107422"/>
     <use xlink:href="#DejaVuSans-68" x="874.316406"/>
     <use xlink:href="#DejaVuSans-65" x="937.695312"/>
     <use xlink:href="#DejaVuSans-20" x="999.21875"/>
     <use xlink:href="#DejaVuSans-63" x="1031.005859"/>
     <use xlink:href="#DejaVuSans-61" x="1085.986328"/>
     <use xlink:href="#DejaVuSans-6d" x="1147.265625"/>
     <use xlink:href="#DejaVuSans-65" x="1244.677734"/>
     <use xlink:href="#DejaVuSans-72" x="1306.201172"/>
     <use xlink:href="#DejaVuSans-61" x="1347.314453"/>
     <use xlink:href="#DejaVuSans-20" x="1408.59375"/>
     <use xlink:href="#DejaVuSans-63" x="1440.380859"/>
     <use xlink:href="#DejaVuSans-6f" x="1495.361328"/>
     <use xlink:href="#DejaVuSans-6f" x="1556.542969"/>
     <use xlink:href="#DejaVuSans-72" x="1617.724609"/>
     <use xlink:href="#DejaVuSans-64" x="1657.087891"/>
     <use xlink:href="#DejaVuSans-69" x="1720.564453"/>
     <use xlink:href="#DejaVuSans-6e" x="1748.347656"/>
     <use xlink:href="#DejaVuSans-61" x="1811.726562"/>
     <use xlink:href="#DejaVuSans-74" x="1873.005859"/>
     <use xlink:href="#DejaVuSans-65" x="1912.214844"/>
     <use xlink:href="#DejaVuSans-20" x="1973.738281"/>
     <use xlink:href="#DejaVuSans-63" x="2005.525391"/>
     <use xlink:href="#DejaVuSans-6f" x="2060.505859"/>
     <use xlink:href="#DejaVuSans-6e" x="2121.6875"/>
     <use xlink:href="#DejaVuSans-76" x="2185.066406"/>
     <use xlink:href="#DejaVuSans-65" x="2244.246094"/>
     <use xlink:href="#DejaVuSans-6e" x="2305.769531"/>
     <use xlink:href="#DejaVuSans-74" x="2369.148438"/>
     <use xlink:href="#DejaVuSans-69" x="2408.357422"/>
     <use xlink:href="#DejaVuSans-6f" x="2436.140625"/>
     <use xlink:href="#DejaVuSans-6e" x="2497.322266"/>
     <use xlink:href="#DejaVuSans-3b" x="2560.701172"/>
     <use xlink:href="#DejaVuSans-20" x="2594.392578"/>
     <use xlink:href="#DejaVuSans-6f" x="2626.179688"/>
     <use xlink:href="#DejaVuSans-6e" x="2687.361328"/>
     <use xlink:href="#DejaVuSans-6c" x="2750.740234"/>
     <use xlink:href="#DejaVuSans-79" x="2778.523438"/>
     <use xlink:href="#DejaVuSans-20" x="2837.703125"/>
     <use xlink:href="#DejaVuSans-64" x="2869.490234"/>
     <use xlink:href="#DejaVuSans-69" x="2932.966797"/>
     <use xlink:href="#DejaVuSans-72" x="2960.75"/>
     <use xlink:href="#DejaVuSans-65" x="2999.613281"/>
     <use xlink:href="#DejaVuSans-63" x="3061.136719"/>
     <use xlink:href="#DejaVuSans-74" x="3116.117188"/>
     <use xlink:href="#DejaVuSans-69" x="3155.326172"/>
     <use xlink:href="#DejaVuSans-6f" x="3183.109375"/>
     <use xlink:href="#DejaVuSans-6e" x="3244.291016"/>
     <use xlink:href="#DejaVuSans-61" x="3307.669922"/>
     <use xlink:href="#DejaVuSans-6c" x="3368.949219"/>
     <use xlink:href="#DejaVuSans-20" x="3396.732422"/>
     <use xlink:href="#DejaVuSans-72" x="3428.519531"/>
     <use xlink:href="#DejaVuSans-65" x="3467.382812"/>
     <use xlink:href="#DejaVuSans-73" x="3528.90625"/>
     <use xlink:href="#DejaVuSans-70" x="3581.005859"/>
     <use xlink:href="#DejaVuSans-6f" x="3644.482422"/>
     <use xlink:href="#DejaVuSans-6e" x="3705.664062"/>
     <use xlink:href="#DejaVuSans-73" x="3769.042969"/>
     <use xlink:href="#DejaVuSans-65" x="3821.142578"/>
     <use xlink:href="#DejaVuSans-20" x="3882.666016"/>
     <use xlink:href="#DejaVuSans-69" x="3914.453125"/>
     <use xlink:href="#DejaVuSans-73" x="3942.236328"/>
     <use xlink:href="#DejaVuSans-20" x="3994.335938"/>
     <use xlink:href="#DejaVuSans-63" x="4026.123047"/>
     <use xlink:href="#DejaVuSans-6c" x="4081.103516"/>
     <use xlink:href="#DejaVuSans-61" x="4108.886719"/>
     <use xlink:href="#DejaVuSans-69" x="4170.166016"/>
     <use xlink:href="#DejaVuSans-6d" x="4197.949219"/>
     <use xlink:href="#DejaVuSans-65" x="4295.361328"/>
     <use xlink:href="#DejaVuSans-64" x="4356.884766"/>
     <use xlink:href="#DejaVuSans-2e" x="4420.361328"/>
    </g>
   </g>
   <g id="text_15">
    <!-- -0.439 m -->
    <g transform="translate(75.809393 240.283899) scale(0.09 -0.09)">
     <defs>
      <path id="DejaVuSans-2d" d="M 313 2009 
L 1997 2009 
L 1997 1497 
L 313 1497 
L 313 2009 
z
" transform="scale(0.015625)"/>
      <path id="DejaVuSans-39" d="M 703 97 
L 703 672 
Q 941 559 1184 500 
Q 1428 441 1663 441 
Q 2288 441 2617 861 
Q 2947 1281 2994 2138 
Q 2813 1869 2534 1725 
Q 2256 1581 1919 1581 
Q 1219 1581 811 2004 
Q 403 2428 403 3163 
Q 403 3881 828 4315 
Q 1253 4750 1959 4750 
Q 2769 4750 3195 4129 
Q 3622 3509 3622 2328 
Q 3622 1225 3098 567 
Q 2575 -91 1691 -91 
Q 1453 -91 1209 -44 
Q 966 3 703 97 
z
M 1959 2075 
Q 2384 2075 2632 2365 
Q 2881 2656 2881 3163 
Q 2881 3666 2632 3958 
Q 2384 4250 1959 4250 
Q 1534 4250 1286 3958 
Q 1038 3666 1038 3163 
Q 1038 2656 1286 2365 
Q 1534 2075 1959 2075 
z
" transform="scale(0.015625)"/>
     </defs>
     <use xlink:href="#DejaVuSans-2d"/>
     <use xlink:href="#DejaVuSans-30" x="36.083984"/>
     <use xlink:href="#DejaVuSans-2e" x="99.707031"/>
     <use xlink:href="#DejaVuSans-34" x="131.494141"/>
     <use xlink:href="#DejaVuSans-33" x="195.117188"/>
     <use xlink:href="#DejaVuSans-39" x="258.740234"/>
     <use xlink:href="#DejaVuSans-20" x="322.363281"/>
     <use xlink:href="#DejaVuSans-6d" x="354.150391"/>
    </g>
   </g>
   <g id="text_16">
    <!-- +0.000 m -->
    <g transform="translate(357.678656 156.644937) scale(0.09 -0.09)">
     <defs>
      <path id="DejaVuSans-2b" d="M 2944 4013 
L 2944 2272 
L 4684 2272 
L 4684 1741 
L 2944 1741 
L 2944 0 
L 2419 0 
L 2419 1741 
L 678 1741 
L 678 2272 
L 2419 2272 
L 2419 4013 
L 2944 4013 
z
" transform="scale(0.015625)"/>
     </defs>
     <use xlink:href="#DejaVuSans-2b"/>
     <use xlink:href="#DejaVuSans-30" x="83.789062"/>
     <use xlink:href="#DejaVuSans-2e" x="147.412109"/>
     <use xlink:href="#DejaVuSans-30" x="179.199219"/>
     <use xlink:href="#DejaVuSans-30" x="242.822266"/>
     <use xlink:href="#DejaVuSans-30" x="306.445312"/>
     <use xlink:href="#DejaVuSans-20" x="370.068359"/>
     <use xlink:href="#DejaVuSans-6d" x="401.855469"/>
    </g>
   </g>
   <g id="text_17">
    <!-- +0.376 m -->
    <g transform="translate(550.380843 73.005976) scale(0.09 -0.09)">
     <defs>
      <path id="DejaVuSans-37" d="M 525 4666 
L 3525 4666 
L 3525 4397 
L 1831 0 
L 1172 0 
L 2766 4134 
L 525 4134 
L 525 4666 
z
" transform="scale(0.015625)"/>
      <path id="DejaVuSans-36" d="M 2113 2584 
Q 1688 2584 1439 2293 
Q 1191 2003 1191 1497 
Q 1191 994 1439 701 
Q 1688 409 2113 409 
Q 2538 409 2786 701 
Q 3034 994 3034 1497 
Q 3034 2003 2786 2293 
Q 2538 2584 2113 2584 
z
M 3366 4563 
L 3366 3988 
Q 3128 4100 2886 4159 
Q 2644 4219 2406 4219 
Q 1781 4219 1451 3797 
Q 1122 3375 1075 2522 
Q 1259 2794 1537 2939 
Q 1816 3084 2150 3084 
Q 2853 3084 3261 2657 
Q 3669 2231 3669 1497 
Q 3669 778 3244 343 
Q 2819 -91 2113 -91 
Q 1303 -91 875 529 
Q 447 1150 447 2328 
Q 447 3434 972 4092 
Q 1497 4750 2381 4750 
Q 2619 4750 2861 4703 
Q 3103 4656 3366 4563 
z
" transform="scale(0.015625)"/>
     </defs>
     <use xlink:href="#DejaVuSans-2b"/>
     <use xlink:href="#DejaVuSans-30" x="83.789062"/>
     <use xlink:href="#DejaVuSans-2e" x="147.412109"/>
     <use xlink:href="#DejaVuSans-33" x="179.199219"/>
     <use xlink:href="#DejaVuSans-37" x="242.822266"/>
     <use xlink:href="#DejaVuSans-36" x="306.445312"/>
     <use xlink:href="#DejaVuSans-20" x="370.068359"/>
     <use xlink:href="#DejaVuSans-6d" x="401.855469"/>
    </g>
   </g>
   <g id="text_18">
    <!-- Guided hardware lateral response -->
    <g style="fill: #17212b" transform="translate(179.535977 19.3575) scale(0.16 -0.16)">
     <defs>
      <path id="DejaVuSans-Bold-47" d="M 4781 347 
Q 4331 128 3847 18 
Q 3363 -91 2847 -91 
Q 1681 -91 1000 561 
Q 319 1213 319 2328 
Q 319 3456 1012 4103 
Q 1706 4750 2913 4750 
Q 3378 4750 3804 4662 
Q 4231 4575 4609 4403 
L 4609 3438 
Q 4219 3659 3833 3768 
Q 3447 3878 3059 3878 
Q 2341 3878 1952 3476 
Q 1563 3075 1563 2328 
Q 1563 1588 1938 1184 
Q 2313 781 3003 781 
Q 3191 781 3352 804 
Q 3513 828 3641 878 
L 3641 1784 
L 2906 1784 
L 2906 2591 
L 4781 2591 
L 4781 347 
z
" transform="scale(0.015625)"/>
      <path id="DejaVuSans-Bold-75" d="M 500 1363 
L 500 3500 
L 1625 3500 
L 1625 3150 
Q 1625 2866 1622 2436 
Q 1619 2006 1619 1863 
Q 1619 1441 1641 1255 
Q 1663 1069 1716 984 
Q 1784 875 1895 815 
Q 2006 756 2150 756 
Q 2500 756 2700 1025 
Q 2900 1294 2900 1772 
L 2900 3500 
L 4019 3500 
L 4019 0 
L 2900 0 
L 2900 506 
Q 2647 200 2364 54 
Q 2081 -91 1741 -91 
Q 1134 -91 817 281 
Q 500 653 500 1363 
z
" transform="scale(0.015625)"/>
      <path id="DejaVuSans-Bold-69" d="M 538 3500 
L 1656 3500 
L 1656 0 
L 538 0 
L 538 3500 
z
M 538 4863 
L 1656 4863 
L 1656 3950 
L 538 3950 
L 538 4863 
z
" transform="scale(0.015625)"/>
      <path id="DejaVuSans-Bold-64" d="M 2919 2988 
L 2919 4863 
L 4044 4863 
L 4044 0 
L 2919 0 
L 2919 506 
Q 2688 197 2409 53 
Q 2131 -91 1766 -91 
Q 1119 -91 703 423 
Q 288 938 288 1747 
Q 288 2556 703 3070 
Q 1119 3584 1766 3584 
Q 2128 3584 2408 3439 
Q 2688 3294 2919 2988 
z
M 2181 722 
Q 2541 722 2730 984 
Q 2919 1247 2919 1747 
Q 2919 2247 2730 2509 
Q 2541 2772 2181 2772 
Q 1825 2772 1636 2509 
Q 1447 2247 1447 1747 
Q 1447 1247 1636 984 
Q 1825 722 2181 722 
z
" transform="scale(0.015625)"/>
      <path id="DejaVuSans-Bold-65" d="M 4031 1759 
L 4031 1441 
L 1416 1441 
Q 1456 1047 1700 850 
Q 1944 653 2381 653 
Q 2734 653 3104 758 
Q 3475 863 3866 1075 
L 3866 213 
Q 3469 63 3072 -14 
Q 2675 -91 2278 -91 
Q 1328 -91 801 392 
Q 275 875 275 1747 
Q 275 2603 792 3093 
Q 1309 3584 2216 3584 
Q 3041 3584 3536 3087 
Q 4031 2591 4031 1759 
z
M 2881 2131 
Q 2881 2450 2695 2645 
Q 2509 2841 2209 2841 
Q 1884 2841 1681 2658 
Q 1478 2475 1428 2131 
L 2881 2131 
z
" transform="scale(0.015625)"/>
      <path id="DejaVuSans-Bold-20" transform="scale(0.015625)"/>
      <path id="DejaVuSans-Bold-68" d="M 4056 2131 
L 4056 0 
L 2931 0 
L 2931 347 
L 2931 1625 
Q 2931 2084 2911 2256 
Q 2891 2428 2841 2509 
Q 2775 2619 2662 2680 
Q 2550 2741 2406 2741 
Q 2056 2741 1856 2470 
Q 1656 2200 1656 1722 
L 1656 0 
L 538 0 
L 538 4863 
L 1656 4863 
L 1656 2988 
Q 1909 3294 2193 3439 
Q 2478 3584 2822 3584 
Q 3428 3584 3742 3212 
Q 4056 2841 4056 2131 
z
" transform="scale(0.015625)"/>
      <path id="DejaVuSans-Bold-61" d="M 2106 1575 
Q 1756 1575 1579 1456 
Q 1403 1338 1403 1106 
Q 1403 894 1545 773 
Q 1688 653 1941 653 
Q 2256 653 2472 879 
Q 2688 1106 2688 1447 
L 2688 1575 
L 2106 1575 
z
M 3816 1997 
L 3816 0 
L 2688 0 
L 2688 519 
Q 2463 200 2181 54 
Q 1900 -91 1497 -91 
Q 953 -91 614 226 
Q 275 544 275 1050 
Q 275 1666 698 1953 
Q 1122 2241 2028 2241 
L 2688 2241 
L 2688 2328 
Q 2688 2594 2478 2717 
Q 2269 2841 1825 2841 
Q 1466 2841 1156 2769 
Q 847 2697 581 2553 
L 581 3406 
Q 941 3494 1303 3539 
Q 1666 3584 2028 3584 
Q 2975 3584 3395 3211 
Q 3816 2838 3816 1997 
z
" transform="scale(0.015625)"/>
      <path id="DejaVuSans-Bold-72" d="M 3138 2547 
Q 2991 2616 2845 2648 
Q 2700 2681 2553 2681 
Q 2122 2681 1889 2404 
Q 1656 2128 1656 1613 
L 1656 0 
L 538 0 
L 538 3500 
L 1656 3500 
L 1656 2925 
Q 1872 3269 2151 3426 
Q 2431 3584 2822 3584 
Q 2878 3584 2943 3579 
Q 3009 3575 3134 3559 
L 3138 2547 
z
" transform="scale(0.015625)"/>
      <path id="DejaVuSans-Bold-77" d="M 225 3500 
L 1313 3500 
L 1900 1088 
L 2491 3500 
L 3425 3500 
L 4013 1113 
L 4603 3500 
L 5691 3500 
L 4769 0 
L 3547 0 
L 2956 2406 
L 2369 0 
L 1147 0 
L 225 3500 
z
" transform="scale(0.015625)"/>
      <path id="DejaVuSans-Bold-6c" d="M 538 4863 
L 1656 4863 
L 1656 0 
L 538 0 
L 538 4863 
z
" transform="scale(0.015625)"/>
      <path id="DejaVuSans-Bold-74" d="M 1759 4494 
L 1759 3500 
L 2913 3500 
L 2913 2700 
L 1759 2700 
L 1759 1216 
Q 1759 972 1856 886 
Q 1953 800 2241 800 
L 2816 800 
L 2816 0 
L 1856 0 
Q 1194 0 917 276 
Q 641 553 641 1216 
L 641 2700 
L 84 2700 
L 84 3500 
L 641 3500 
L 641 4494 
L 1759 4494 
z
" transform="scale(0.015625)"/>
      <path id="DejaVuSans-Bold-73" d="M 3272 3391 
L 3272 2541 
Q 2913 2691 2578 2766 
Q 2244 2841 1947 2841 
Q 1628 2841 1473 2761 
Q 1319 2681 1319 2516 
Q 1319 2381 1436 2309 
Q 1553 2238 1856 2203 
L 2053 2175 
Q 2913 2066 3209 1816 
Q 3506 1566 3506 1031 
Q 3506 472 3093 190 
Q 2681 -91 1863 -91 
Q 1516 -91 1145 -36 
Q 775 19 384 128 
L 384 978 
Q 719 816 1070 734 
Q 1422 653 1784 653 
Q 2113 653 2278 743 
Q 2444 834 2444 1013 
Q 2444 1163 2330 1236 
Q 2216 1309 1875 1350 
L 1678 1375 
Q 931 1469 631 1722 
Q 331 1975 331 2491 
Q 331 3047 712 3315 
Q 1094 3584 1881 3584 
Q 2191 3584 2531 3537 
Q 2872 3491 3272 3391 
z
" transform="scale(0.015625)"/>
      <path id="DejaVuSans-Bold-70" d="M 1656 506 
L 1656 -1331 
L 538 -1331 
L 538 3500 
L 1656 3500 
L 1656 2988 
Q 1888 3294 2169 3439 
Q 2450 3584 2816 3584 
Q 3463 3584 3878 3070 
Q 4294 2556 4294 1747 
Q 4294 938 3878 423 
Q 3463 -91 2816 -91 
Q 2450 -91 2169 54 
Q 1888 200 1656 506 
z
M 2400 2772 
Q 2041 2772 1848 2508 
Q 1656 2244 1656 1747 
Q 1656 1250 1848 986 
Q 2041 722 2400 722 
Q 2759 722 2948 984 
Q 3138 1247 3138 1747 
Q 3138 2247 2948 2509 
Q 2759 2772 2400 2772 
z
" transform="scale(0.015625)"/>
      <path id="DejaVuSans-Bold-6f" d="M 2203 2784 
Q 1831 2784 1636 2517 
Q 1441 2250 1441 1747 
Q 1441 1244 1636 976 
Q 1831 709 2203 709 
Q 2569 709 2762 976 
Q 2956 1244 2956 1747 
Q 2956 2250 2762 2517 
Q 2569 2784 2203 2784 
z
M 2203 3584 
Q 3106 3584 3614 3096 
Q 4122 2609 4122 1747 
Q 4122 884 3614 396 
Q 3106 -91 2203 -91 
Q 1297 -91 786 396 
Q 275 884 275 1747 
Q 275 2609 786 3096 
Q 1297 3584 2203 3584 
z
" transform="scale(0.015625)"/>
      <path id="DejaVuSans-Bold-6e" d="M 4056 2131 
L 4056 0 
L 2931 0 
L 2931 347 
L 2931 1631 
Q 2931 2084 2911 2256 
Q 2891 2428 2841 2509 
Q 2775 2619 2662 2680 
Q 2550 2741 2406 2741 
Q 2056 2741 1856 2470 
Q 1656 2200 1656 1722 
L 1656 0 
L 538 0 
L 538 3500 
L 1656 3500 
L 1656 2988 
Q 1909 3294 2193 3439 
Q 2478 3584 2822 3584 
Q 3428 3584 3742 3212 
Q 4056 2841 4056 2131 
z
" transform="scale(0.015625)"/>
     </defs>
     <use xlink:href="#DejaVuSans-Bold-47"/>
     <use xlink:href="#DejaVuSans-Bold-75" x="82.080078"/>
     <use xlink:href="#DejaVuSans-Bold-69" x="153.271484"/>
     <use xlink:href="#DejaVuSans-Bold-64" x="187.548828"/>
     <use xlink:href="#DejaVuSans-Bold-65" x="259.130859"/>
     <use xlink:href="#DejaVuSans-Bold-64" x="326.953125"/>
     <use xlink:href="#DejaVuSans-Bold-20" x="398.535156"/>
     <use xlink:href="#DejaVuSans-Bold-68" x="433.349609"/>
     <use xlink:href="#DejaVuSans-Bold-61" x="504.541016"/>
     <use xlink:href="#DejaVuSans-Bold-72" x="572.021484"/>
     <use xlink:href="#DejaVuSans-Bold-64" x="621.337891"/>
     <use xlink:href="#DejaVuSans-Bold-77" x="692.919922"/>
     <use xlink:href="#DejaVuSans-Bold-61" x="785.302734"/>
     <use xlink:href="#DejaVuSans-Bold-72" x="852.783203"/>
     <use xlink:href="#DejaVuSans-Bold-65" x="902.099609"/>
     <use xlink:href="#DejaVuSans-Bold-20" x="969.921875"/>
     <use xlink:href="#DejaVuSans-Bold-6c" x="1004.736328"/>
     <use xlink:href="#DejaVuSans-Bold-61" x="1039.013672"/>
     <use xlink:href="#DejaVuSans-Bold-74" x="1106.494141"/>
     <use xlink:href="#DejaVuSans-Bold-65" x="1154.296875"/>
     <use xlink:href="#DejaVuSans-Bold-72" x="1222.119141"/>
     <use xlink:href="#DejaVuSans-Bold-61" x="1271.435547"/>
     <use xlink:href="#DejaVuSans-Bold-6c" x="1338.916016"/>
     <use xlink:href="#DejaVuSans-Bold-20" x="1373.193359"/>
     <use xlink:href="#DejaVuSans-Bold-72" x="1408.007812"/>
     <use xlink:href="#DejaVuSans-Bold-65" x="1457.324219"/>
     <use xlink:href="#DejaVuSans-Bold-73" x="1525.146484"/>
     <use xlink:href="#DejaVuSans-Bold-70" x="1584.667969"/>
     <use xlink:href="#DejaVuSans-Bold-6f" x="1656.25"/>
     <use xlink:href="#DejaVuSans-Bold-6e" x="1724.951172"/>
     <use xlink:href="#DejaVuSans-Bold-73" x="1796.142578"/>
     <use xlink:href="#DejaVuSans-Bold-65" x="1855.664062"/>
    </g>
   </g>
  </g>
  <g id="text_19">
   <!-- Source: GHOST_GUIDED_HARDWARE_VALIDATION_20260716.json -->
   <g style="fill: #687386" transform="translate(7.2 335.16405) scale(0.08 -0.08)">
    <defs>
     <path id="DejaVuSans-53" d="M 3425 4513 
L 3425 3897 
Q 3066 4069 2747 4153 
Q 2428 4238 2131 4238 
Q 1616 4238 1336 4038 
Q 1056 3838 1056 3469 
Q 1056 3159 1242 3001 
Q 1428 2844 1947 2747 
L 2328 2669 
Q 3034 2534 3370 2195 
Q 3706 1856 3706 1288 
Q 3706 609 3251 259 
Q 2797 -91 1919 -91 
Q 1588 -91 1214 -16 
Q 841 59 441 206 
L 441 856 
Q 825 641 1194 531 
Q 1563 422 1919 422 
Q 2459 422 2753 634 
Q 3047 847 3047 1241 
Q 3047 1584 2836 1778 
Q 2625 1972 2144 2069 
L 1759 2144 
Q 1053 2284 737 2584 
Q 422 2884 422 3419 
Q 422 4038 858 4394 
Q 1294 4750 2059 4750 
Q 2388 4750 2728 4690 
Q 3069 4631 3425 4513 
z
" transform="scale(0.015625)"/>
     <path id="DejaVuSans-75" d="M 544 1381 
L 544 3500 
L 1119 3500 
L 1119 1403 
Q 1119 906 1312 657 
Q 1506 409 1894 409 
Q 2359 409 2629 706 
Q 2900 1003 2900 1516 
L 2900 3500 
L 3475 3500 
L 3475 0 
L 2900 0 
L 2900 538 
Q 2691 219 2414 64 
Q 2138 -91 1772 -91 
Q 1169 -91 856 284 
Q 544 659 544 1381 
z
M 1991 3584 
L 1991 3584 
z
" transform="scale(0.015625)"/>
     <path id="DejaVuSans-3a" d="M 750 794 
L 1409 794 
L 1409 0 
L 750 0 
L 750 794 
z
M 750 3309 
L 1409 3309 
L 1409 2516 
L 750 2516 
L 750 3309 
z
" transform="scale(0.015625)"/>
     <path id="DejaVuSans-47" d="M 3809 666 
L 3809 1919 
L 2778 1919 
L 2778 2438 
L 4434 2438 
L 4434 434 
Q 4069 175 3628 42 
Q 3188 -91 2688 -91 
Q 1594 -91 976 548 
Q 359 1188 359 2328 
Q 359 3472 976 4111 
Q 1594 4750 2688 4750 
Q 3144 4750 3555 4637 
Q 3966 4525 4313 4306 
L 4313 3634 
Q 3963 3931 3569 4081 
Q 3175 4231 2741 4231 
Q 1884 4231 1454 3753 
Q 1025 3275 1025 2328 
Q 1025 1384 1454 906 
Q 1884 428 2741 428 
Q 3075 428 3337 486 
Q 3600 544 3809 666 
z
" transform="scale(0.015625)"/>
     <path id="DejaVuSans-48" d="M 628 4666 
L 1259 4666 
L 1259 2753 
L 3553 2753 
L 3553 4666 
L 4184 4666 
L 4184 0 
L 3553 0 
L 3553 2222 
L 1259 2222 
L 1259 0 
L 628 0 
L 628 4666 
z
" transform="scale(0.015625)"/>
     <path id="DejaVuSans-4f" d="M 2522 4238 
Q 1834 4238 1429 3725 
Q 1025 3213 1025 2328 
Q 1025 1447 1429 934 
Q 1834 422 2522 422 
Q 3209 422 3611 934 
Q 4013 1447 4013 2328 
Q 4013 3213 3611 3725 
Q 3209 4238 2522 4238 
z
M 2522 4750 
Q 3503 4750 4090 4092 
Q 4678 3434 4678 2328 
Q 4678 1225 4090 567 
Q 3503 -91 2522 -91 
Q 1538 -91 948 565 
Q 359 1222 359 2328 
Q 359 3434 948 4092 
Q 1538 4750 2522 4750 
z
" transform="scale(0.015625)"/>
     <path id="DejaVuSans-5f" d="M 3263 -1063 
L 3263 -1509 
L -63 -1509 
L -63 -1063 
L 3263 -1063 
z
" transform="scale(0.015625)"/>
     <path id="DejaVuSans-55" d="M 556 4666 
L 1191 4666 
L 1191 1831 
Q 1191 1081 1462 751 
Q 1734 422 2344 422 
Q 2950 422 3222 751 
Q 3494 1081 3494 1831 
L 3494 4666 
L 4128 4666 
L 4128 1753 
Q 4128 841 3676 375 
Q 3225 -91 2344 -91 
Q 1459 -91 1007 375 
Q 556 841 556 1753 
L 556 4666 
z
" transform="scale(0.015625)"/>
     <path id="DejaVuSans-49" d="M 628 4666 
L 1259 4666 
L 1259 0 
L 628 0 
L 628 4666 
z
" transform="scale(0.015625)"/>
     <path id="DejaVuSans-44" d="M 1259 4147 
L 1259 519 
L 2022 519 
Q 2988 519 3436 956 
Q 3884 1394 3884 2338 
Q 3884 3275 3436 3711 
Q 2988 4147 2022 4147 
L 1259 4147 
z
M 628 4666 
L 1925 4666 
Q 3281 4666 3915 4102 
Q 4550 3538 4550 2338 
Q 4550 1131 3912 565 
Q 3275 0 1925 0 
L 628 0 
L 628 4666 
z
" transform="scale(0.015625)"/>
     <path id="DejaVuSans-45" d="M 628 4666 
L 3578 4666 
L 3578 4134 
L 1259 4134 
L 1259 2753 
L 3481 2753 
L 3481 2222 
L 1259 2222 
L 1259 531 
L 3634 531 
L 3634 0 
L 628 0 
L 628 4666 
z
" transform="scale(0.015625)"/>
     <path id="DejaVuSans-41" d="M 2188 4044 
L 1331 1722 
L 3047 1722 
L 2188 4044 
z
M 1831 4666 
L 2547 4666 
L 4325 0 
L 3669 0 
L 3244 1197 
L 1141 1197 
L 716 0 
L 50 0 
L 1831 4666 
z
" transform="scale(0.015625)"/>
     <path id="DejaVuSans-57" d="M 213 4666 
L 850 4666 
L 1831 722 
L 2809 4666 
L 3519 4666 
L 4500 722 
L 5478 4666 
L 6119 4666 
L 4947 0 
L 4153 0 
L 3169 4050 
L 2175 0 
L 1381 0 
L 213 4666 
z
" transform="scale(0.015625)"/>
     <path id="DejaVuSans-56" d="M 1831 0 
L 50 4666 
L 709 4666 
L 2188 738 
L 3669 4666 
L 4325 4666 
L 2547 0 
L 1831 0 
z
" transform="scale(0.015625)"/>
     <path id="DejaVuSans-4e" d="M 628 4666 
L 1478 4666 
L 3547 763 
L 3547 4666 
L 4159 4666 
L 4159 0 
L 3309 0 
L 1241 3903 
L 1241 0 
L 628 0 
L 628 4666 
z
" transform="scale(0.015625)"/>
     <path id="DejaVuSans-6a" d="M 603 3500 
L 1178 3500 
L 1178 -63 
Q 1178 -731 923 -1031 
Q 669 -1331 103 -1331 
L -116 -1331 
L -116 -844 
L 38 -844 
Q 366 -844 484 -692 
Q 603 -541 603 -63 
L 603 3500 
z
M 603 4863 
L 1178 4863 
L 1178 4134 
L 603 4134 
L 603 4863 
z
" transform="scale(0.015625)"/>
    </defs>
    <use xlink:href="#DejaVuSans-53"/>
    <use xlink:href="#DejaVuSans-6f" x="63.476562"/>
    <use xlink:href="#DejaVuSans-75" x="124.658203"/>
    <use xlink:href="#DejaVuSans-72" x="188.037109"/>
    <use xlink:href="#DejaVuSans-63" x="226.900391"/>
    <use xlink:href="#DejaVuSans-65" x="281.880859"/>
    <use xlink:href="#DejaVuSans-3a" x="343.404297"/>
    <use xlink:href="#DejaVuSans-20" x="377.095703"/>
    <use xlink:href="#DejaVuSans-47" x="408.882812"/>
    <use xlink:href="#DejaVuSans-48" x="486.373047"/>
    <use xlink:href="#DejaVuSans-4f" x="561.568359"/>
    <use xlink:href="#DejaVuSans-53" x="640.279297"/>
    <use xlink:href="#DejaVuSans-54" x="703.755859"/>
    <use xlink:href="#DejaVuSans-5f" x="764.839844"/>
    <use xlink:href="#DejaVuSans-47" x="814.839844"/>
    <use xlink:href="#DejaVuSans-55" x="892.330078"/>
    <use xlink:href="#DejaVuSans-49" x="965.523438"/>
    <use xlink:href="#DejaVuSans-44" x="995.015625"/>
    <use xlink:href="#DejaVuSans-45" x="1072.017578"/>
    <use xlink:href="#DejaVuSans-44" x="1135.201172"/>
    <use xlink:href="#DejaVuSans-5f" x="1212.203125"/>
    <use xlink:href="#DejaVuSans-48" x="1262.203125"/>
    <use xlink:href="#DejaVuSans-41" x="1337.398438"/>
    <use xlink:href="#DejaVuSans-52" x="1405.806641"/>
    <use xlink:href="#DejaVuSans-44" x="1475.289062"/>
    <use xlink:href="#DejaVuSans-57" x="1552.291016"/>
    <use xlink:href="#DejaVuSans-41" x="1645.667969"/>
    <use xlink:href="#DejaVuSans-52" x="1714.076172"/>
    <use xlink:href="#DejaVuSans-45" x="1783.558594"/>
    <use xlink:href="#DejaVuSans-5f" x="1846.742188"/>
    <use xlink:href="#DejaVuSans-56" x="1896.742188"/>
    <use xlink:href="#DejaVuSans-41" x="1958.775391"/>
    <use xlink:href="#DejaVuSans-4c" x="2027.183594"/>
    <use xlink:href="#DejaVuSans-49" x="2082.896484"/>
    <use xlink:href="#DejaVuSans-44" x="2112.388672"/>
    <use xlink:href="#DejaVuSans-41" x="2187.640625"/>
    <use xlink:href="#DejaVuSans-54" x="2248.298828"/>
    <use xlink:href="#DejaVuSans-49" x="2309.382812"/>
    <use xlink:href="#DejaVuSans-4f" x="2338.875"/>
    <use xlink:href="#DejaVuSans-4e" x="2417.585938"/>
    <use xlink:href="#DejaVuSans-5f" x="2492.390625"/>
    <use xlink:href="#DejaVuSans-32" x="2542.390625"/>
    <use xlink:href="#DejaVuSans-30" x="2606.013672"/>
    <use xlink:href="#DejaVuSans-32" x="2669.636719"/>
    <use xlink:href="#DejaVuSans-36" x="2733.259766"/>
    <use xlink:href="#DejaVuSans-30" x="2796.882812"/>
    <use xlink:href="#DejaVuSans-37" x="2860.505859"/>
    <use xlink:href="#DejaVuSans-31" x="2924.128906"/>
    <use xlink:href="#DejaVuSans-36" x="2987.751953"/>
    <use xlink:href="#DejaVuSans-2e" x="3051.375"/>
    <use xlink:href="#DejaVuSans-6a" x="3083.162109"/>
    <use xlink:href="#DejaVuSans-73" x="3110.945312"/>
    <use xlink:href="#DejaVuSans-6f" x="3163.044922"/>
    <use xlink:href="#DejaVuSans-6e" x="3224.226562"/>
   </g>
  </g>
 </g>
 <defs>
  <clipPath id="p0dde9ec62c">
   <rect x="103.552" y="25.3575" width="459.725455" height="257.608"/>
  </clipPath>
 </defs>
</svg>
